# xmcd
#
# Track frame offsets: 
#        150
#        17581
#        34479
#        48512
#        56863
#        68546
#        82682
#        101090
#        117768
#        133339
#        151013
#        157421
#
# Disc length: 2396 seconds
#
# Revision: 1
# Processed by: cddbd v1.5.2PL0 Copyright (c) Steve Scherf et al.
# Submitted via: ExactAudioCopyFreeDBPlugin 1.0
#
DISCID=9d095a0c
DTITLE=Emily Barker and The Red Clay Halo - Despite The Snow
DYEAR=2008
DGENRE=Country
TTITLE0=Nostalgia
TTITLE1=All Love Knows
TTITLE2=Disappear
TTITLE3=If It's All Night Long
TTITLE4=Bloated, Blistered, Aching Heart
TTITLE5=Bright Phoebus
TTITLE6=Storm In A Teacup
TTITLE7=The Greenway
TTITLE8=Sideline
TTITLE9=Breath
TTITLE10=Serendipity
TTITLE11=Oh Journey
EXTD=
EXTT0=
EXTT1=
EXTT2=
EXTT3=
EXTT4=
EXTT5=
EXTT6=
EXTT7=
EXTT8=
EXTT9=
EXTT10=
EXTT11=
PLAYORDER=
